<?xml version="1.0" encoding="UTF-8" standalone="no"?>
<!-- Generator: Adobe Illustrator 18.0.0, SVG Export Plug-In . SVG Version: 6.00 Build 0)  -->

<svg
   xmlns:dc="http://purl.org/dc/elements/1.1/"
   xmlns:cc="http://creativecommons.org/ns#"
   xmlns:rdf="http://www.w3.org/1999/02/22-rdf-syntax-ns#"
   xmlns:svg="http://www.w3.org/2000/svg"
   xmlns="http://www.w3.org/2000/svg"
   xmlns:sodipodi="http://sodipodi.sourceforge.net/DTD/sodipodi-0.dtd"
   xmlns:inkscape="http://www.inkscape.org/namespaces/inkscape"
   version="1.0"
   id="Layer_1"
   x="0px"
   y="0px"
   viewBox="0 0 24 24"
   enable-background="new 0 0 24 24"
   xml:space="preserve"
   inkscape:version="0.48.4 r9939"
   width="100%"
   height="100%"
   sodipodi:docname="ic_add_sound_dir.svg"
   inkscape:export-filename="D:\meine_projekte\dynamic_soundboard_rebrush\dynamic_soundboard_rebrush\DynamicSoundboard\raw_ressources\ic_add_sound_dir.png"
   inkscape:export-xdpi="432"
   inkscape:export-ydpi="432"><metadata
   id="metadata9"><rdf:RDF><cc:Work
       rdf:about=""><dc:format>image/svg+xml</dc:format><dc:type
         rdf:resource="http://purl.org/dc/dcmitype/StillImage" /><dc:title></dc:title></cc:Work></rdf:RDF></metadata><defs
   id="defs7" /><sodipodi:namedview
   pagecolor="#ffffff"
   bordercolor="#666666"
   borderopacity="1"
   objecttolerance="10"
   gridtolerance="10"
   guidetolerance="10"
   inkscape:pageopacity="0"
   inkscape:pageshadow="2"
   inkscape:window-width="1680"
   inkscape:window-height="966"
   id="namedview5"
   showgrid="false"
   inkscape:zoom="24.22208"
   inkscape:cx="11.99896"
   inkscape:cy="15.301731"
   inkscape:window-x="1042"
   inkscape:window-y="156"
   inkscape:window-maximized="1"
   inkscape:current-layer="Layer_1" />
<path
   d="M20,6h-9L9,4H4C2.9,4,2,4.9,2,6v12c0,1.1,0.9,2,2,2h16c1.1,0,2-0.9,2-2V8C22,6.9,21.1,6,20,6z"
   id="path3" />
<path
   style="fill:#ffffff"
   d="m 9.5384398,15.425721 c -0.524499,-0.153448 -0.8771,-0.527162 -0.971339,-1.029502 -0.01439,-0.0767 -0.0062,-0.247333 0.01816,-0.379188 0.204947,-1.108661 1.394434,-1.979768 2.6088032,-1.910528 l 0.367327,0.02094 0,-1.795979 0,-1.7959793 0.691518,0.022234 c 0.751363,0.024158 0.937471,0.063764 1.328574,0.2827419 0.495072,0.2771893 0.95816,0.7668093 1.34201,1.4188984 0.207366,0.352275 0.518655,1.010515 0.518655,1.096727 0,0.02198 -0.09565,-0.02582 -0.212544,-0.106235 -0.610587,-0.42001 -1.62042,-0.721657 -2.417099,-0.72201 l -0.29706,-1.32e-4 -0.01258,1.579138 -0.01258,1.579137 -0.148968,0.309635 c -0.17645,0.366757 -0.334551,0.571261 -0.643808,0.832759 -0.285441,0.241361 -0.636795,0.430278 -0.994781,0.534875 -0.356503,0.104164 -0.9186732,0.134324 -1.1642952,0.06246 z"
   id="path2996"
   inkscape:connector-curvature="0" /><path
   style="fill:none"
   d="M 9.6457352,15.423628 C 9.0206879,15.290823 8.5902702,14.796309 8.5999917,14.222155 8.619078,13.094921 9.9747525,12.031496 11.266158,12.130747 l 0.319956,0.02459 0,-1.79459 0,-1.7945899 0.340598,0.00107 c 0.535815,0.00168 1.11361,0.070676 1.35823,0.1621997 0.488627,0.182819 1.047605,0.688281 1.464069,1.323902 0.269388,0.411148 0.664009,1.181377 0.625169,1.220217 -0.01219,0.01219 -0.114439,-0.0346 -0.22721,-0.103989 -0.587262,-0.361346 -1.42736,-0.611853 -2.183187,-0.651 l -0.459496,-0.0238 -0.01666,1.605672 -0.01666,1.605671 -0.163668,0.309634 c -0.3343,0.632445 -1.025299,1.1794 -1.691368,1.338786 -0.31517,0.07542 -0.7834881,0.10878 -0.9701888,0.06911 z"
   id="path2983"
   inkscape:connector-curvature="0" /><path
   style="fill:none"
   d="M 9.6457352,15.423628 C 9.0206879,15.290823 8.5902702,14.796309 8.5999917,14.222155 8.619078,13.094921 9.9747525,12.031496 11.266158,12.130747 l 0.319956,0.02459 0,-1.79459 0,-1.7945899 0.340598,0.00107 c 0.535815,0.00168 1.11361,0.070676 1.35823,0.1621997 0.488627,0.182819 1.047605,0.688281 1.464069,1.323902 0.269388,0.411148 0.664009,1.181377 0.625169,1.220217 -0.01219,0.01219 -0.114439,-0.0346 -0.22721,-0.103989 -0.587262,-0.361346 -1.42736,-0.611853 -2.183187,-0.651 l -0.459496,-0.0238 -0.01666,1.605672 -0.01666,1.605671 -0.163668,0.309634 c -0.3343,0.632445 -1.025299,1.1794 -1.691368,1.338786 -0.31517,0.07542 -0.7834881,0.10878 -0.9701888,0.06911 z"
   id="path2985"
   inkscape:connector-curvature="0" /></svg>